<?xml version="1.0" encoding="UTF-8" standalone="no"?>
<!-- Generator: Adobe Illustrator 27.4.1, SVG Export Plug-In . SVG Version: 6.00 Build 0)  -->

<svg
   version="1.1"
   id="svg1"
   x="0px"
   y="0px"
   viewBox="0 0 4913.3858 9448.8191"
   xml:space="preserve"
   sodipodi:docname="rin-final-v2.svg"
   inkscape:version="1.3.2 (091e20e, 2023-11-25, custom)"
   width="1300mm"
   height="2500mm"
   xmlns:inkscape="http://www.inkscape.org/namespaces/inkscape"
   xmlns:sodipodi="http://sodipodi.sourceforge.net/DTD/sodipodi-0.dtd"
   xmlns="http://www.w3.org/2000/svg"
   xmlns:svg="http://www.w3.org/2000/svg"><defs
   id="defs3"><clipPath
     clipPathUnits="userSpaceOnUse"
     id="clipPath4667"><path
       d="M 0,2304 H 3312 V 0 H 0 Z"
       transform="translate(-176.904,-218.97901)"
       id="path4667" /></clipPath><clipPath
     clipPathUnits="userSpaceOnUse"
     id="clipPath1"><path
       d="M 0,2304 H 3312 V 0 H 0 Z"
       transform="translate(-176.904,-218.97901)"
       id="path1" /></clipPath><clipPath
     clipPathUnits="userSpaceOnUse"
     id="clipPath2411"><path
       d="M 0,2304 H 3312 V 0 H 0 Z"
       transform="translate(-3114.0701,-1205.83)"
       id="path2411" /></clipPath><clipPath
     clipPathUnits="userSpaceOnUse"
     id="clipPath2389"><path
       d="M 0,2304 H 3312 V 0 H 0 Z"
       transform="translate(-2577.67,-1966.54)"
       id="path2389" /></clipPath><clipPath
     clipPathUnits="userSpaceOnUse"
     id="clipPath2379"><path
       d="M 0,2304 H 3312 V 0 H 0 Z"
       transform="translate(-2467.9201,-1589.14)"
       id="path2379" /></clipPath><clipPath
     clipPathUnits="userSpaceOnUse"
     id="clipPath2345"><path
       d="M 0,2304 H 3312 V 0 H 0 Z"
       transform="translate(-1575.64,-1613.07)"
       id="path2345" /></clipPath><clipPath
     clipPathUnits="userSpaceOnUse"
     id="clipPath2317"><path
       d="M 0,2304 H 3312 V 0 H 0 Z"
       transform="translate(-1408.02,-1469.67)"
       id="path2317" /></clipPath></defs>
<style
   type="text/css"
   id="style1">
	.st0{fill:none;stroke:#000000;stroke-width:3.6198;stroke-miterlimit:11.3386;}
</style>
<sodipodi:namedview
   bordercolor="#ffffff"
   borderopacity="1"
   id="namedview1"
   inkscape:current-layer="layer2"
   inkscape:cx="3590.4943"
   inkscape:cy="2464.9348"
   inkscape:deskcolor="#505050"
   inkscape:document-units="cm"
   inkscape:pagecheckerboard="1"
   inkscape:pageopacity="0"
   inkscape:showpageshadow="0"
   inkscape:window-height="1001"
   inkscape:window-maximized="1"
   inkscape:window-width="1920"
   inkscape:window-x="-9"
   inkscape:window-y="-9"
   inkscape:zoom="0.12393837"
   pagecolor="#ffffff"
   showguides="true">
	</sodipodi:namedview>
<g
   inkscape:groupmode="layer"
   id="layer2"
   inkscape:label="Layer 2"><path
     style="font-variation-settings:normal;opacity:1;vector-effect:none;fill:none;fill-opacity:1;stroke:#000000;stroke-width:4.80922;stroke-linecap:butt;stroke-linejoin:miter;stroke-miterlimit:4;stroke-dasharray:none;stroke-dashoffset:0;stroke-opacity:1;-inkscape-stroke:none;stop-color:#000000;stop-opacity:1"
     d="m 875.62227,1772.3099 c 9.1034,-46.0736 30.3042,-155.2464 37.5424,-201.6575 10.0838,-62.3406 17.0098,-125.1231 25.0847,-187.7397 0.5133,-3.786 1.1573,-8.64 1.5886,-11.7615 7.2574,-53.6153 17.1069,-106.9425 31.1021,-159.2251 6.641,-21.5856 22.1877,-38.7107 37.22723,-54.9275 21.5066,-22.6915 43.6709,-45.4118 58.9323,-72.9774 10.8306,-19.3901 18.5223,-40.6957 21.5671,-62.7322 1.6116,-17.9785 -1.3111,-35.93227 -3.6752,-53.69987 -1.7375,-21.4447 -3.3029,-42.9097 -4.4459,-64.3933 -0.3896,-9.0187 -0.4032,-18.0703 -2.0292,-26.9791 -2.9174,-19.7234 -5.0623,-39.5588 -6.1984,-59.4663 -1.1259,-10.0792 -0.064,-20.1951 0.136,-30.2967 2.4371,-16.1794 5.2037,-32.3304 7.0765,-48.5813 0.6697,-10.9587 1.2585,-21.92502 2.9442,-32.78636 1.0311,-11.05028 3.6253,-21.86816 5.5,-32.77224 -0.1323,-9.51538 -0.807,-19.04712 -0.5798,-28.55226 1.0711,-12.63326 1.9892,-25.28394 4.0437,-37.80612 2.671,-15.57653 5.5211,-31.13874 8.7107,-46.61775 3.1869,-14.20823 7.4101,-28.14482 11.3337,-42.1558 3.4034,-18.60041 6.3715,-37.287 10.69,-55.70604 1.9083,-7.55664 2.9941,-15.38007 6.3961,-22.46423 2.9102,-7.63325 6.1882,-15.09925 10.0826,-22.28504 6.5439,-12.2101 11.8919,-24.99167 17.4539,-37.66443 11.9233,-29.99732 23.2267,-60.23857 34.7153,-90.40093 4.7308,-16.74097 9.1873,-33.59264 14.8252,-50.04647 11.4384,-23.07409 22.5906,-46.28599 33.4912,-69.61901 -11.5752,-10.46053 -22.9822,-21.13236 -34.6594,-31.46397 -15.1461,-10.74625 -45.1299,-26.78332 -60.6626,-36.95694 -87.7429,3.05016 -106.1189,3.31378 -190.51283,13.75499 -52.219,165.49569 -166.4636,283.51881 -252.5174,277.80772 -86.0538,5.71109 -200.2984,-112.31203 -252.5174,-277.80772 -84.39393,-10.44121 -102.76993,-10.70483 -190.51283,-13.75499 -15.5327,10.17362 -45.5165,26.21069 -60.6626,36.95694 -11.6772,10.33161 -23.0842,21.00344 -34.6594,31.46397 10.9006,23.33302 22.0528,46.54492 33.4912,69.61901 5.6379,16.45383 10.0944,33.3055 14.8252,50.04647 11.4886,30.16236 22.792,60.40361 34.7153,90.40093 5.562,12.67276 10.91,25.45433 17.4539,37.66443 3.8944,7.18579 7.1724,14.65179 10.0826,22.28504 3.402,7.08416 4.4878,14.90759 6.3961,22.46423 4.3185,18.41904 7.2866,37.10563 10.69,55.70604 3.9236,14.01098 8.1468,27.94757 11.3337,42.1558 3.1896,15.47901 6.0397,31.04122 8.7107,46.61775 2.0545,12.52218 2.9726,25.17286 4.0437,37.80612 0.2272,9.50514 -0.4475,19.03688 -0.5798,28.55226 1.8747,10.90408 4.4689,21.72196 5.5,32.77224 1.6857,10.86134 2.2745,21.82766 2.9442,32.78636 1.8728,16.2509 4.6394,32.4019 7.0765,48.5813 0.2,10.1016 1.2619,20.2175 0.136,30.2967 -1.1361,19.9075 -3.281,39.7429 -6.1984,59.4663 -1.626,8.9088 -1.6396,17.9604 -2.0292,26.9791 -1.143,21.4836 -2.7084,42.9486 -4.4459,64.3933 -2.3641,17.7676 -5.2868,35.72137 -3.6752,53.69987 3.0448,22.0365 10.7365,43.3421 21.5671,62.7322 15.2614,27.5656 37.4257,50.2859 58.9323,72.9774 15.03953,16.2168 30.58623,33.3419 37.22723,54.9275 13.9952,52.2826 23.8447,105.6098 31.1021,159.2251 0.4313,3.1215 1.0753,7.9755 1.5886,11.7615 8.0749,62.6166 15.0009,125.3991 25.0847,187.7397 7.2382,46.4111 28.439,155.5839 37.5424,201.6575 l 174.8372,-0.4589 z"
     id="path24"
     inkscape:label="Block"
     sodipodi:nodetypes="ccccccccccccccccccccccccccccccccccccccccccccccccccccccccccccccc" /><path
     id="path2"
     style="font-variation-settings:normal;vector-effect:none;fill:none;fill-opacity:1;stroke:#000000;stroke-width:4.80922;stroke-linecap:butt;stroke-linejoin:miter;stroke-miterlimit:4;stroke-dasharray:none;stroke-dashoffset:0;stroke-opacity:1;-inkscape-stroke:none;stop-color:#000000"
     inkscape:label="Seam allowance"
     d="m 2073.0585,100.55851 c -45.7221,0.0272 -91.1928,6.19465 -136.0184,14.81991 -70.1703,13.71439 -139.2949,32.21896 -208.0732,51.6291 -128.8902,10.88807 -294.3372,22.77725 -423.2274,33.66456 -0.038,185.78268 -0.038,371.56499 -0.038,557.34764 128.3539,11.9747 293.2645,22.94676 421.6184,34.92026 48.3232,13.6702 96.8451,26.7024 145.8029,37.917 54.6266,12.393 109.9306,23.1435 165.9999,25.816 30.6009,1.685 61.2155,-0.4805 91.8228,-0.5465 6.8145,0.1129 12.5031,0.2811 19.6715,0.4807 7.1684,-0.1996 12.857,-0.3678 19.6715,-0.4807 30.6073,0.066 61.2219,2.2315 91.8228,0.5465 56.0693,-2.6725 111.3733,-13.423 165.9999,-25.816 48.9578,-11.2146 97.4797,-24.2468 145.8029,-37.917 128.3539,-11.9735 293.2645,-22.94556 421.6184,-34.92026 0,-185.78265 0,-371.56496 -0.038,-557.34764 -128.8902,-10.88731 -294.3372,-22.77649 -423.2274,-33.66456 -68.7783,-19.41014 -137.9029,-37.91471 -208.0732,-51.6291 -44.8256,-8.62526 -90.2963,-14.79269 -136.0184,-14.81991 -26.973,-0.0438 -77.5585,0.0915 -77.5585,0.0915 0,0 -50.5855,-0.1353 -77.5585,-0.0915 z"
     sodipodi:nodetypes="ccccccccccccccccccccc" /><path
     id="path66"
     style="font-variation-settings:normal;display:inline;vector-effect:none;fill:none;fill-opacity:1;stroke:#000000;stroke-width:4.80922;stroke-linecap:butt;stroke-linejoin:miter;stroke-miterlimit:4;stroke-dasharray:none;stroke-dashoffset:0;stroke-opacity:1;-inkscape-stroke:none;stop-color:#000000"
     d="m 1833.8127,1691.3533 c -9.606,218.6803 -17.0842,388.4662 -26.6936,607.1468 l -8.8168,135.0648 584.7372,-26.5124 13.4976,-106.7861 c 4.3627,-25.9807 8.3421,-52.0293 12.955,-77.9658 2.0435,-10.5287 4.1147,-21.053 5.1741,-31.7365 2.6117,-21.5021 5.65,-42.9576 8.0971,-64.4756 1.5773,-19.0039 2.9291,-38.0383 4.6473,-57.0225 2.6006,-14.0988 5.9785,-28.0717 7.453,-42.3536 1.4565,-12.2496 3.4487,-24.4494 4.5556,-36.7314 1.0456,-16.7376 1.6968,-33.5109 2.9908,-50.2259 2.5314,-21.4455 5.5104,-42.8426 7.7437,-64.3205 1.6104,-16.3842 2.8737,-32.8216 4.7017,-49.1731 2.1591,-10.6308 4.7009,-21.2063 6.6216,-31.8719 2.044,-26.9769 4.5118,-53.9221 6.5632,-80.8963 1.0068,-16.4124 1.4794,-32.8656 2.8492,-49.2506 1.4063,-15.2453 3.215,-30.4712 4.3692,-45.7287 -0.078,-18.3613 0.2381,-36.7331 -0.086,-55.0877 -1.0168,-19.0465 -2.3661,-38.0923 -3.1726,-57.1394 0.683,-15.3507 1.9028,-30.6867 2.2274,-46.0473 0.1646,-31.3037 0.105,-62.6126 -0.3831,-93.9111 -0.7293,-13.8685 -0.9382,-27.7757 -1.9993,-41.6193 -3.0758,-29.2304 -6.3426,-58.4409 -9.6691,-87.6423 -2.1218,-26.5607 -4.8012,-53.0722 -7.2314,-79.604 -1.0548,-12.2928 -1.6773,-24.8937 -5.9125,-36.5793 -2.199,-22.9137 -2.3125,-45.9577 -3.3817,-68.9381 0.4085,-12.715 1.4876,-25.4204 1.4309,-38.1422 -0.2292,-13.3608 3.4575,-109.79806 3.2234,-123.15875 -1.2061,-8.841 0.8044,-26.00393 -19.7154,-48.70873 -45.4269,3.72475 -117.6546,21.91046 -167.0501,29.54529 -45.4921,20.77498 -41.3249,18.32012 -71.913,31.4485 -26.1612,14.60633 -52.1495,29.51553 -78.0513,44.57543 -21.3827,9.2782 -42.6485,18.8333 -64.3473,27.3591 -15.2709,6.8508 -30.6735,13.46999 -45.8409,20.51429 -22.3405,14.54777 -96.9584,56.30977 -119.3006,70.85467 l -5.4549,49.2988 c 101.3823,85.6201 126.7899,241.594 130.9745,372.9343 1.9774,62.0619 -55.2795,199.2704 -138.5193,193.6029 z"
     sodipodi:nodetypes="cccccccccccccccccccccccccccccccccccccscc"
     inkscape:label="Seam allowance" /><path
     id="path3"
     style="font-variation-settings:normal;display:inline;vector-effect:none;fill:none;fill-opacity:1;stroke:#000000;stroke-width:4.80922;stroke-linecap:butt;stroke-linejoin:miter;stroke-miterlimit:4;stroke-dasharray:none;stroke-dashoffset:0;stroke-opacity:1;-inkscape-stroke:none;stop-color:#000000"
     d="m 3739.3158,749.65225 c -9.606,-218.6803 -17.0842,-388.4662 -26.6936,-607.14679 l -8.8168,-135.0647971 584.7372,26.5124001 13.4976,106.786097 c 4.3627,25.98069 8.3421,52.02929 12.955,77.96579 2.0435,10.5287 4.1147,21.053 5.1741,31.7365 2.6117,21.5021 5.65,42.9576 8.0971,64.4756 1.5773,19.0039 2.9291,38.0383 4.6473,57.0225 2.6006,14.0988 5.9785,28.0717 7.453,42.3536 1.4565,12.2496 3.4487,24.4494 4.5556,36.7314 1.0456,16.7376 1.6968,33.5109 2.9908,50.2259 2.5314,21.4455 5.5104,42.8426 7.7437,64.3205 1.6104,16.3842 2.8737,32.8216 4.7017,49.1731 2.1591,10.6308 4.7009,21.2063 6.6216,31.8719 2.044,26.9769 4.5118,53.9221 6.5632,80.8963 1.0068,16.4124 1.4794,32.8656 2.8492,49.2506 1.4063,15.2453 3.215,30.4712 4.3692,45.7287 -0.078,18.3613 0.2381,36.7331 -0.086,55.0877 -1.0168,19.0465 -2.3661,38.0923 -3.1726,57.1394 0.683,15.35066 1.9028,30.68666 2.2274,46.04726 0.1646,31.30369 0.105,62.61259 -0.3831,93.91109 -0.7293,13.8685 -0.9382,27.7757 -1.9993,41.6193 -3.0758,29.2304 -6.3426,58.4409 -9.6691,87.6423 -2.1218,26.5607 -4.8012,53.0722 -7.2314,79.604 -1.0548,12.2928 -1.6773,24.8937 -5.9125,36.5793 -2.199,22.9137 -2.3125,45.9577 -3.3817,68.9381 0.4085,12.715 1.4876,25.4204 1.4309,38.1422 -0.2292,13.3608 3.4575,109.7981 3.2234,123.1588 -1.2061,8.841 0.8044,26.0039 -19.7154,48.7087 -45.4269,-3.7247 -117.6546,-21.9104 -167.0501,-29.5452 -45.4921,-20.775 -41.3249,-18.3202 -71.913,-31.4485 -26.1612,-14.6064 -52.1495,-29.5156 -78.0513,-44.5755 -21.3827,-9.2782 -42.6485,-18.8333 -64.3473,-27.359 -15.2709,-6.8509 -30.6735,-13.4701 -45.8409,-20.5144 -22.3405,-14.5478 -96.9584,-56.3098 -119.3006,-70.8547 l -5.4549,-49.2988 c 101.3823,-85.6201 126.7899,-241.594 130.9745,-372.93429 1.9774,-62.06186 -55.2795,-199.27036 -138.5193,-193.60286 z"
     sodipodi:nodetypes="cccccccccccccccccccccccccccccccccccccscc"
     inkscape:label="Seam allowance" /><path
     id="path63"
     style="font-variation-settings:normal;display:inline;vector-effect:none;fill:none;fill-opacity:1;stroke:#000000;stroke-width:4.80922;stroke-linecap:butt;stroke-linejoin:miter;stroke-miterlimit:4;stroke-dasharray:none;stroke-dashoffset:0;stroke-opacity:1;-inkscape-stroke:none;stop-color:#000000"
     d="m 3708.1035,196.77273 c -11.5763,-11.55859 -51.7678,-52.80291 -63.2379,-64.44488 -4.5305,-8.28812 -11.0283,-15.20213 -16.7134,-22.68408 -13.9941,-17.94671 -28.7449,-35.27505 -43.4438,-52.64319 -4.9735,-6.84159 -9.5021,-14.04026 -15.5074,-20.05315 -7.2038,-7.99238 -14.4057,-15.98661 -21.6087,-23.97982 -8.2454,3.45717 -16.4912,6.91434 -24.7366,10.37155 v 3.8e-4 c -4.5513,1.78254 -9.0414,3.68115 -12.9188,6.71758 -9.6261,6.47252 -19.3694,12.82757 -28.5381,19.93304 -10.8756,8.80199 -21.2924,18.16271 -31.6135,27.60314 -11.537,11.18944 -23.6149,21.78762 -35.6576,32.42438 -6.2116,7.34283 -12.0094,15.06731 -18.4845,22.16742 -7.3459,7.213 -15.1023,14.03656 -21.552,22.09848 -5.8469,6.67782 -11.3836,13.65287 -18.1319,19.46604 -4.1235,4.13726 -8.8007,7.81422 -12.5745,12.2428 -7.1535,10.90859 -13.993,22.04901 -21.3389,32.81518 -8.9166,10.38569 -17.4803,21.09461 -26.6226,31.27352 -13.4479,13.72671 -27.2791,27.07971 -40.6998,40.82781 -18.2325,19.6752 -35.9308,39.8357 -54.3235,59.3629 -6.3859,7.5306 -11.9766,15.7266 -18.0522,23.5165 -11.6307,14.909 -21.3895,31.1633 -32.9484,46.1288 -8.4136,11.3494 -16.6912,22.8231 -24.6236,34.5047 -5.6621,9.8408 -11.2471,19.7294 -17.7838,29.0273 -5.5699,8.68 -11.4868,17.1144 -17.8545,25.2291 -2.9125,3.9855 -6.3776,7.6445 -7.9208,12.4346 -6.8704,15.4995 -13.4551,31.1316 -21.1926,46.2274 -7.6845,15.0924 -14.2518,30.7265 -21.7269,45.9118 -7.047,12.412 -14.0852,24.8746 -19.3924,38.157 -1.0764,4.8265 -0.943,9.9587 -1.5568,14.9027 -2.2541,26.5073 -3.7383,53.0793 -5.6784,79.6052 -5.1118,42.8224 -10.4398,85.6244 -15.4167,128.45972 -3.081,44.8377 -6.3605,89.6648 -9.3173,134.50915 -1.0484,30.9426 -2.3293,61.8902 -3.2326,92.8305 3.4522,44.3388 6.748,88.7033 10.3007,133.0262 12.1773,49.6758 25.6657,142.2625 37.841,191.9387 l 540.2287,0.3667 5.0306,-129.7524 c 0,0 32.293,-413.74025 51.8445,-630.65077 l -36.623,-9.7425 c -20.8127,-10.0135 -38.9767,-114.8479 -37.8909,-172.188 1.9151,-101.1369 39.0131,-235.07461 141.4527,-252.31151 z"
     sodipodi:nodetypes="ccccccssccccccccccccccccccccccccccccccccscc"
     inkscape:label="Seam allowance" /><path
     id="path4"
     style="font-variation-settings:normal;display:inline;vector-effect:none;fill:none;fill-opacity:1;stroke:#000000;stroke-width:4.80922;stroke-linecap:butt;stroke-linejoin:miter;stroke-miterlimit:4;stroke-dasharray:none;stroke-dashoffset:0;stroke-opacity:1;-inkscape-stroke:none;stop-color:#000000"
     d="m 1811.8774,2028.4935 c -11.5763,11.5585 -51.7678,52.8029 -63.2379,64.4448 -4.5305,8.2882 -11.0283,15.2022 -16.7134,22.6841 -13.9941,17.9467 -28.7449,35.2751 -43.4438,52.6432 -4.9735,6.8416 -9.5021,14.0403 -15.5074,20.0532 -7.2038,7.9923 -14.4057,15.9866 -21.6087,23.9798 -8.2454,-3.4572 -16.4912,-6.9144 -24.7366,-10.3716 v -4e-4 c -4.5513,-1.7825 -9.0414,-3.6811 -12.9188,-6.7175 -9.6261,-6.4726 -19.3694,-12.8276 -28.5381,-19.9331 -10.8756,-8.802 -21.2924,-18.1627 -31.6135,-27.6031 -11.537,-11.1895 -23.6149,-21.7876 -35.6576,-32.4244 -6.2116,-7.3428 -12.0094,-15.0673 -18.4845,-22.1674 -7.3459,-7.213 -15.1023,-14.0366 -21.552,-22.0985 -5.8469,-6.6778 -11.3836,-13.6529 -18.1319,-19.466 -4.1235,-4.1373 -8.8007,-7.8143 -12.5745,-12.2428 -7.1535,-10.9086 -13.993,-22.049 -21.3389,-32.8152 -8.9166,-10.3857 -17.4803,-21.0946 -26.6226,-31.2735 -13.4479,-13.7267 -27.2791,-27.0797 -40.6998,-40.8278 -18.2325,-19.6752 -35.9308,-39.8357 -54.3235,-59.3629 -6.3859,-7.5306 -11.9766,-15.7266 -18.0522,-23.5165 -11.6307,-14.909 -21.3895,-31.1633 -32.9484,-46.1288 -8.4136,-11.3494 -16.6912,-22.8231 -24.6236,-34.5047 -5.6621,-9.8408 -11.2471,-19.7294 -17.7838,-29.0273 -5.5699,-8.68 -11.4868,-17.1144 -17.8545,-25.2291 -2.9125,-3.9855 -6.3776,-7.6445 -7.9208,-12.4346 -6.8704,-15.4995 -13.4551,-31.1316 -21.1926,-46.2274 -7.6845,-15.0924 -14.2518,-30.7265 -21.7269,-45.9118 -7.047,-12.412 -14.0852,-24.8746 -19.3924,-38.157 -1.0764,-4.8265 -0.943,-9.9587 -1.5568,-14.9027 -2.2541,-26.5073 -3.7383,-53.0793 -5.6784,-79.6052 -5.1118,-42.8224 -10.4398,-85.6244 -15.4167,-128.4597 -3.081,-44.8377 -6.3605,-89.6648 -9.3173,-134.5092 -1.0484,-30.9426 -2.3293,-61.8902 -3.2326,-92.8305 3.4522,-44.3388 6.748,-88.7033 10.3007,-133.02617 12.1773,-49.67585 25.6657,-142.26255 37.841,-191.93875 l 540.2287,-0.3667 5.0306,129.7524 c 0,0 32.293,413.74032 51.8445,630.65082 l -36.623,9.7425 c -20.8127,10.0135 -38.9767,114.8479 -37.8909,172.188 1.9151,101.1369 39.0131,235.0746 141.4527,252.3115 z"
     sodipodi:nodetypes="ccccccssccccccccccccccccccccccccccccccccscc"
     inkscape:label="Seam allowance" /><path
     id="path70"
     style="font-variation-settings:normal;vector-effect:none;fill:none;fill-opacity:1;stroke:#000000;stroke-width:4.80922;stroke-linecap:butt;stroke-linejoin:miter;stroke-miterlimit:4;stroke-dasharray:none;stroke-dashoffset:0;stroke-opacity:1;-inkscape-stroke:none;stop-color:#000000"
     inkscape:label="Seam allowance"
     d="m 2665.1426,823.99185 c -28.3756,8.4212 -56.7545,16.8316 -85.1278,25.2608 -5.0298,6.591 -10.3427,13.0275 -15.2001,19.7116 -2.9874,8.7755 -4.204,129.5727 -6.9332,138.41825 -1.9521,10.471 -4.2954,20.904 -5.9966,31.4003 -0.1776,6.7092 0.3628,13.4858 -0.2835,20.1509 -1.898,10.5867 -4.0237,21.1234 -6.8504,31.5059 -2.1021,8.2788 -4.3498,16.5295 -5.2868,25.0423 -2.1169,15.1201 -4.9504,30.1358 -7.0053,45.2603 -1.5198,14.488 -3.8963,28.9036 -4.2989,43.4861 -0.6882,12.1612 -1.4067,24.3217 -1.1308,36.5082 -0.079,17.4387 0.1625,34.8904 -0.1209,52.3209 -1.1135,15.3969 -2.9477,30.7566 -2.9352,46.2121 0.1058,4.9632 -0.3402,9.8655 -1.5855,14.6792 -1.3743,8.0263 -3.8941,15.9145 -3.7712,24.1215 -0.4551,12.2233 -0.9483,24.4441 -2.3403,36.6039 -0.7892,9.7036 -2.0391,19.3995 -2.5399,29.1081 0.7639,10.7776 0.7601,21.636 2.8441,32.2733 0.765,4.9625 1.8743,9.9096 1.0753,14.9428 -0.5299,13.0541 -3.2353,25.9532 -2.9004,39.0482 -0.3972,18.9796 -0.443,37.9646 -0.4978,56.9446 -0.8927,13.3999 -1.2185,26.8256 -1.6161,40.2425 -1.6105,16.004 -2.9749,32.0379 -5.5124,47.9305 -1.6989,11.9195 -3.5604,23.8208 -4.2256,35.8552 -1.6902,21.2965 -3.8978,42.5492 -5.729,63.8321 -0.754,7.1682 -2.2303,14.3074 -1.4449,21.5376 0.2533,10.8718 1.3954,21.755 0.3099,32.6124 -0.7324,10.498 -1.3024,21.0013 -1.0556,31.5288 0.038,13.4234 0.2419,26.8615 0.7593,40.2694 2.3229,24.4089 4.5948,48.8576 6.5726,73.2763 -2.1403,12.8822 -4.6768,25.716 -6.5677,38.6283 -1.9804,26.5225 -3.6083,53.0744 -6.3945,79.5289 -1.4056,16.1476 -3.3472,32.256 -4.3941,48.4301 -0.8398,17.5597 -1.9393,35.1246 -2.6173,52.6813 l -2.7262,177.9923 493.1989,-1.3247 c 2.6936,-266.9688 -5.5896,-306.0733 -42.5488,-810.0839 -54.062,-217.1546 -118.4837,-544.4142 -172.5453,-761.56865 -12.6255,3.7451 -79.954,21.8857 -92.5795,25.6308 z"
     sodipodi:nodetypes="cccccccccccccccccccccccccccccccccccccccc" /><path
     id="path5"
     style="font-variation-settings:normal;vector-effect:none;fill:none;fill-opacity:1;stroke:#000000;stroke-width:4.80922;stroke-linecap:butt;stroke-linejoin:miter;stroke-miterlimit:4;stroke-dasharray:none;stroke-dashoffset:0;stroke-opacity:1;-inkscape-stroke:none;stop-color:#000000"
     inkscape:label="Seam allowance"
     d="m 4703.0071,46.325619 c 28.3756,8.4212 56.7545,16.8316 85.1278,25.2608 5.0298,6.591002 10.3427,13.027502 15.2001,19.711602 2.9874,8.775499 4.204,129.572699 6.9332,138.418199 1.9521,10.471 4.2954,20.904 5.9966,31.4003 0.1776,6.7092 -0.3628,13.4858 0.2835,20.1509 1.898,10.5867 4.0237,21.1234 6.8504,31.5059 2.1021,8.2788 4.3498,16.5295 5.2868,25.0423 2.1169,15.1201 4.9504,30.1358 7.0053,45.2603 1.5198,14.488 3.8963,28.9036 4.2989,43.4861 0.6882,12.1612 1.4067,24.3217 1.1308,36.5082 0.079,17.4387 -0.1625,34.8904 0.1209,52.3209 1.1135,15.3969 2.9477,30.7566 2.9352,46.2121 -0.1058,4.9632 0.3402,9.8655 1.5855,14.6792 1.3743,8.0263 3.8941,15.9145 3.7712,24.1215 0.4551,12.2233 0.9483,24.4441 2.3403,36.6039 0.7892,9.7036 2.0391,19.3995 2.5399,29.1081 -0.7639,10.7776 -0.7601,21.636 -2.8441,32.2733 -0.765,4.9625 -1.8743,9.9096 -1.0753,14.9428 0.5299,13.0541 3.2353,25.9532 2.9004,39.0482 0.3972,18.9796 0.443,37.9646 0.4978,56.9446 0.8927,13.3999 1.2185,26.8256 1.6161,40.2425 1.6105,16.004 2.9749,32.0379 5.5124,47.9305 1.6989,11.9195 3.5604,23.8208 4.2256,35.8552 1.6902,21.2965 3.8978,42.5492 5.729,63.8321 0.754,7.16818 2.2303,14.30738 1.4449,21.53758 -0.2533,10.8718 -1.3954,21.755 -0.3099,32.6124 0.7324,10.498 1.3024,21.0013 1.0556,31.5288 -0.038,13.4234 -0.2419,26.8615 -0.7593,40.2694 -2.3229,24.4089 -4.5948,48.8576 -6.5726,73.2763 2.1403,12.8822 4.6768,25.716 6.5677,38.6283 1.9804,26.5225 3.6083,53.0744 6.3945,79.5289 1.4056,16.1476 3.3472,32.256 4.3941,48.4301 0.8398,17.5597 1.9393,35.1246 2.6173,52.6813 l 2.7262,177.9923 -493.1989,-1.3247 c -2.6936,-266.9688 5.5896,-306.0733 42.5488,-810.08388 54.062,-217.1546 118.4837,-544.4142 172.5453,-761.568601 12.6255,3.7451 79.954,21.8857 92.5795,25.6308 z"
     sodipodi:nodetypes="cccccccccccccccccccccccccccccccccccccccc" /><path
     style="font-variation-settings:normal;display:inline;opacity:1;vector-effect:none;fill:none;fill-opacity:1;stroke:#000000;stroke-width:4.80922;stroke-linecap:butt;stroke-linejoin:miter;stroke-miterlimit:4;stroke-dasharray:none;stroke-dashoffset:0;stroke-opacity:1;-inkscape-stroke:none;stop-color:#000000;stop-opacity:1"
     d="m 764.73173,3322.759 -0.102,-56.1842 C 743.59633,3203.98 659.45113,3096.7219 610.12563,3045.7267 477.49073,2862.131 389.26863,2649.196 228.78793,2485.4078 l -45.1684,-37.6223 c 19.2133,-42.1988 59.8901,-128.8459 59.8901,-128.8459 l 49.3557,25.7405 c 79.3432,45.8828 162.2268,106.5991 235.6743,153.1132 149.4233,94.6291 276.9237,157.1691 443.4425,208.3466 166.51877,-51.1775 294.01917,-113.7175 443.44247,-208.3466 73.4475,-46.5141 156.3311,-107.2304 235.6743,-153.1132 l 49.3557,-25.7405 c 0,0 40.6768,86.6471 59.8901,128.8459 l -45.1684,37.6223 c -160.4807,163.7882 -248.7028,376.7232 -381.3377,560.3189 -49.3255,50.9952 -133.4707,158.2533 -154.5041,220.8481 l -0.102,56.1842 c -68.3101,-0.3231 -136.2974,0.019 -207.25037,-0.1708 -70.953,0.1898 -138.9403,-0.1523 -207.2504,0.1708 z"
     id="path84-3"
     sodipodi:nodetypes="cccccccscsccccccccc"
     inkscape:label="Block" /><path
     id="path55-1-0-9"
     style="font-variation-settings:normal;display:inline;vector-effect:none;fill:none;fill-opacity:1;stroke:#000000;stroke-width:4.80922;stroke-linecap:butt;stroke-linejoin:miter;stroke-miterlimit:4;stroke-dasharray:none;stroke-dashoffset:0;stroke-opacity:1;-inkscape-stroke:none;stop-color:#000000"
     inkscape:label="Seam allowance back"
     d="m 698.80858,2553.9063 c 29.4142,-14.3349 58.4621,-28.9512 95.2592,-37.6213 39.6303,-10.1328 118.7233,-14.1611 172.17681,-12.7882 14.2197,-0.092 30.7623,-0.488 44.97711,0.2902 115.5103,-3.9014 153.9984,6.5505 198.5749,15.5342 30.7294,9.2715 57.5471,21.4253 82.9992,34.5852 l -0.053,-58.4883 c -31.0701,-43.3726 -64.2003,-265.2574 -77.8013,-434.7088 -11.0416,-82.1194 -17.5117,-157.8058 -15.5936,-199.5926 l 0.3175,-56.386 -405.87972,-0.6638 0.5603,57.0498 c 2.2172,48.2938 -6.7701,141.8666 -21.1119,238.7257 -15.2281,163.2077 -45.6794,355.5196 -74.3726,395.5757 z"
     sodipodi:nodetypes="ccccccccccccccc" /><path
     id="path6"
     style="font-variation-settings:normal;display:inline;vector-effect:none;fill:none;fill-opacity:1;stroke:#000000;stroke-width:4.82638;stroke-linecap:butt;stroke-linejoin:miter;stroke-miterlimit:4;stroke-dasharray:none;stroke-dashoffset:0;stroke-opacity:1;-inkscape-stroke:none;stop-color:#000000"
     d="m 3718.4349,2744.4272 c -41.6118,1.457 -83.5298,4.8901 -123.8097,15.9936 -22.6417,6.1206 -44.1514,15.8279 -64.4622,27.4741 -2.9869,1.6419 -5.9739,3.2839 -8.9608,4.9259 l -14.3761,-56.7872 c -50.4394,-190.7724 -242.3691,-669.3659 -443.8937,-958.283 l -39.8743,-49.8703 c 16.3076,-40.4555 29.6092,-76.1059 45.5456,-115.9017 l 51.3833,23.3163 c 132.2258,58.0658 264.4526,153.7778 396.679,237.9108 83.4398,53.0911 190.3907,68.3473 287.0955,99.4276 96.7048,-31.0803 203.6557,-46.3365 287.0955,-99.4276 132.2264,-84.133 264.4532,-179.845 396.679,-237.9108 l 51.3833,-23.3163 c 15.9364,39.7958 29.238,75.4462 45.5456,115.9017 l -39.8743,49.8703 c -201.5246,288.9171 -393.4543,767.5106 -443.8937,958.283 l -14.3761,56.7872 c -2.9869,-1.642 -5.9739,-3.284 -8.9608,-4.9259 -20.3108,-11.6462 -41.8205,-21.3535 -64.4622,-27.4741 -40.2799,-11.1035 -82.1979,-14.5366 -123.8097,-15.9936 -28.5528,-0.9712 -57.1023,-0.4343 -85.3266,0.4072 -28.2243,-0.8415 -56.7738,-1.3784 -85.3266,-0.4072 z"
     sodipodi:nodetypes="cccccccccscsccccccccccc"
     inkscape:label="Seam allowance" /><path
     id="path63-0"
     sodipodi:nodetypes="cccscccccccccccccccccccccsccccccccccccscccccc"
     class="st31"
     d="m 1868.3074,2954.251 c -12.7299,82.3266 -90.4661,77.5495 -152.2646,98.0006 1.16,20.2 -5.0781,84.1447 -5.0781,84.1447 114.1195,-8.1601 135.1176,22.1313 90.2578,63.0944 -13.847,12.6442 -39.9509,22.6087 -58.6004,32.924 l 48.2493,107.3579 33.25,-37.24 -14.495,44.9581 c 0,0 87.6087,27.6625 112.5787,35.0225 3.26,-8.03 3.5563,-49.5306 6.8063,-57.5506 3.32,7.64 7.25,48.37 10.57,56.01 26.17,-3.98 81.8,-11.94 107.97,-15.93 -0.51,-7.05 3.16,-48.47 3.16,-48.47 l 15.37,33.96 c 23.18,-10.97 42.19,-13.7 75.6,-14.33 33.41,0.63 52.42,3.36 75.6,14.33 l 15.37,-33.96 c 0,0 3.67,41.42 3.16,48.47 26.17,3.99 81.8,11.95 107.97,15.93 3.32,-7.64 7.25,-48.37 10.57,-56.01 3.25,8.02 3.5463,49.5206 6.8063,57.5506 24.97,-7.36 112.5787,-35.0225 112.5787,-35.0225 l -14.495,-44.9581 33.25,37.24 48.2493,-107.3579 c -18.6495,-10.3153 -44.7534,-20.2798 -58.6004,-32.924 -44.8598,-40.9631 -23.8617,-71.2545 90.2578,-63.0944 0,0 -6.2381,-63.9447 -5.0781,-84.1447 -61.7985,-20.4511 -139.5347,-15.674 -152.2646,-98.0006 -8.94,-73.54 41.076,-354.5984 59.556,-401.9184 l 15.4151,-55.3623 c 0,0 -44.1631,-19.1222 -67.3122,-25.643 -25.717,-7.3427 -52.2235,-11.5751 -78.8153,-14.1339 -28.6688,-2.752 -57.4674,-3.828 -86.2507,-4.4883 -34.0498,-0.7079 -68.104,-1.2569 -102.1467,-2.2734 -2.5683,-0.1287 -5.1567,-0.041 -7.6977,-0.4787 -2.2738,-0.086 -4.5476,-0.3714 -6.8213,-0.3217 -2.535,0.1818 -5.0872,0.2012 -7.5988,0.6055 -20.8077,0.7263 -41.6255,1.1147 -62.4405,1.5679 -29.5536,0.6439 -59.1217,0.9177 -88.6509,2.3761 -30.7268,1.5194 -61.5004,4.0334 -91.7234,9.9823 -20.4699,4.0087 -40.5918,9.7628 -60.1048,17.131 -16.7475,6.2704 -40.607,17.9895 -40.607,17.9895 l 18.8942,53.049 c 18.48,47.32 68.496,328.3784 59.556,401.9184 z"
     style="font-variation-settings:normal;display:inline;opacity:1;vector-effect:none;fill:none;fill-opacity:1;stroke:#000000;stroke-width:4.80922;stroke-linecap:butt;stroke-linejoin:miter;stroke-miterlimit:4;stroke-dasharray:none;stroke-dashoffset:0;stroke-opacity:1;-inkscape-stroke:none;stop-color:#000000;stop-opacity:1"
     inkscape:label="Block" /></g>
</svg>
